<?xml version="1.0" encoding="UTF-8"?> <svg xmlns="http://www.w3.org/2000/svg" width="48" height="48" viewBox="0 0 48 48" fill="none"><path d="M25.3772 46.0473C25.6854 46.0463 26.1118 46.4831 26.1118 47.0227C26.1118 47.5622 25.6873 48 25.3791 48H22.6605C22.3523 48.001 21.9259 47.5641 21.9259 47.0246C21.9259 46.4851 22.3513 46.0473 22.6586 46.0473H25.3772ZM16.4734 45.861C16.6021 45.3369 17.1197 45.0143 17.4183 45.0872L20.0581 45.7362C20.3577 45.813 20.6679 46.3459 20.5392 46.8643C20.4106 47.3827 19.893 47.7062 19.5934 47.6323L16.9535 46.9843C16.653 46.9104 16.3447 46.3852 16.4734 45.861ZM30.6165 45.0757C30.9152 45.0018 31.4366 45.3196 31.5634 45.8438C31.6901 46.3679 31.3828 46.894 31.0832 46.968L28.4443 47.6208C28.1457 47.6985 27.6252 47.376 27.4975 46.8528C27.3698 46.3295 27.678 45.8025 27.9776 45.7285L30.6165 45.0757ZM11.4578 43.4245C11.7084 42.9464 12.2875 42.7563 12.5612 42.8993L14.9686 44.1608C15.2423 44.3039 15.4113 44.8895 15.1607 45.3666C14.91 45.8438 14.33 46.0338 14.0573 45.8908L11.6499 44.6293C11.381 44.4872 11.2072 43.9026 11.4578 43.4245ZM35.4698 42.8801C35.7425 42.7409 36.3216 42.9252 36.5741 43.4024C36.8267 43.8795 36.6548 44.4651 36.3821 44.6082L33.9756 45.8735C33.7029 46.0166 33.1257 45.8294 32.8722 45.3513C32.6187 44.8732 32.7916 44.2885 33.0643 44.1454L35.4698 42.8801ZM24.8164 42.4932C25.1246 42.4932 25.551 42.931 25.551 43.4696C25.551 44.0082 25.1265 44.4469 24.8183 44.4469H23.2156C22.9073 44.4469 22.4809 44.0101 22.4809 43.4705C22.4809 42.931 22.9054 42.4932 23.2136 42.4932H24.8164ZM17.8629 42.5393C17.9916 42.0161 18.5092 41.6925 18.8088 41.7665L20.3654 42.1505C20.6641 42.2244 20.9733 42.7495 20.8446 43.2737C20.7159 43.7979 20.1983 44.1205 19.8987 44.0475L18.3431 43.6635C18.0435 43.5896 17.7342 43.0625 17.8629 42.5393ZM29.2231 41.7636C29.5227 41.6858 30.0432 42.0074 30.17 42.5316C30.2967 43.0558 29.9885 43.5819 29.6898 43.6558L28.1342 44.0398C27.8346 44.1138 27.3141 43.795 27.1873 43.2718C27.0606 42.7486 27.3688 42.2215 27.6675 42.1476L29.2231 41.7636ZM7.17107 39.8579C7.52926 39.4547 8.13712 39.4086 8.36855 39.6131L10.4034 41.4141C10.6358 41.6177 10.6646 42.2263 10.3074 42.6305C9.95014 43.0347 9.34132 43.0808 9.11085 42.8763L7.07504 41.0752C6.84265 40.8717 6.81288 40.2611 7.17107 39.8579ZM39.6567 39.5853C39.8871 39.3808 40.4998 39.4259 40.8541 39.8291C41.2085 40.2323 41.1806 40.841 40.9502 41.0464L38.9172 42.8504C38.6868 43.0548 38.0731 43.0116 37.7198 42.6075C37.3664 42.2033 37.3933 41.5946 37.6237 41.3901L39.6567 39.5853ZM13.6021 40.5347C13.8528 40.0566 14.4328 39.8666 14.7055 40.0096L16.1248 40.7527C16.3975 40.8957 16.5704 41.4804 16.3207 41.9585C16.071 42.4366 15.491 42.6257 15.2183 42.4827L13.799 41.7396C13.5253 41.5965 13.3515 41.0128 13.6021 40.5347ZM33.3178 39.9933C33.5905 39.8502 34.1686 40.0394 34.4221 40.5165C34.6756 40.9936 34.5028 41.5783 34.2301 41.7213L32.8108 42.4673C32.539 42.6113 31.9609 42.4222 31.7074 41.945C31.4539 41.4679 31.6267 40.8823 31.8995 40.7392L33.3178 39.9933ZM24.0116 38.9382C24.551 38.9377 24.9887 39.3744 24.9892 39.9136C24.9897 40.4528 24.5529 40.8904 24.0136 40.8909C23.7545 40.8914 23.5058 40.7889 23.3224 40.6059C23.139 40.4229 23.036 40.1745 23.036 39.9155C23.0355 39.3763 23.4723 38.9387 24.0116 38.9382ZM19.2538 39.2233C19.3821 38.6996 19.9107 38.379 20.4346 38.5071C20.6862 38.5687 20.9031 38.7277 21.0375 38.9492C21.1718 39.1707 21.2126 39.4364 21.1509 39.688C21.0225 40.2117 20.4938 40.5321 19.97 40.4038C19.4462 40.2755 19.1256 39.747 19.2538 39.2233ZM27.5877 38.5011C28.1112 38.3715 28.6406 38.6907 28.7703 39.2141C28.9 39.7374 28.5808 40.2668 28.0573 40.3965C27.8058 40.4588 27.5399 40.4187 27.318 40.2849C27.0961 40.1511 26.9365 39.9347 26.8743 39.6832C26.7448 39.1598 27.0642 38.6306 27.5877 38.5011ZM9.94342 37.5653C10.3006 37.1612 10.9095 37.116 11.1399 37.3196L12.3403 38.3814C12.5737 38.5859 12.6025 39.1945 12.2443 39.5987C11.887 40.0029 11.2782 40.0528 11.0478 39.8445L9.84739 38.7827C9.61501 38.5791 9.5862 37.9695 9.94342 37.5653ZM36.8785 37.2975C37.109 37.093 37.7178 37.1372 38.076 37.5413C38.4342 37.9407 38.4064 38.5532 38.1721 38.7577L36.9736 39.8214C36.7431 40.0259 36.1314 39.9818 35.7771 39.5785C35.4227 39.1753 35.4506 38.5657 35.6811 38.3612L36.8785 37.2975ZM15.7464 37.6441C15.9968 37.1665 16.587 36.9822 17.0647 37.2324C17.5424 37.4826 17.7268 38.0727 17.4766 38.5503C17.2263 39.0279 16.6362 39.2123 16.1584 38.9622C15.9289 38.842 15.7566 38.6357 15.6793 38.3884C15.602 38.1412 15.6262 37.8735 15.7464 37.6441ZM30.9566 37.2205C31.4339 36.9697 32.0243 37.1531 32.2753 37.6302C32.5264 38.1074 32.343 38.6977 31.8658 38.9488C31.6365 39.0694 31.3686 39.094 31.1212 39.0171C30.8737 38.9402 30.6669 38.7682 30.5464 38.5388C30.2956 38.0615 30.4792 37.4714 30.9566 37.2205ZM3.86384 35.3697C4.30749 35.0635 4.90959 35.1652 5.08436 35.4187L6.62947 37.6537C6.80712 37.9071 6.68901 38.5062 6.24535 38.8124C5.8017 39.1187 5.20056 39.0179 5.02483 38.7644L3.47972 36.5285C3.30207 36.2751 3.42018 35.676 3.86384 35.3697ZM42.9332 35.3851C43.1079 35.1316 43.71 35.0289 44.1537 35.3352C44.5983 35.6366 44.7145 36.2386 44.5388 36.493L42.9965 38.7308C42.8218 38.9852 42.2158 39.088 41.776 38.7817C41.3362 38.4755 41.2171 37.8774 41.3919 37.6239L42.9332 35.3851ZM23.6262 35.4565C23.9917 35.3053 24.4122 35.3891 24.6917 35.6688C24.9712 35.9485 25.0546 36.369 24.903 36.7342C24.7514 37.0994 24.3946 37.3372 23.9992 37.3369C23.74 37.3369 23.4914 37.2339 23.3083 37.0505C23.1251 36.8672 23.0223 36.6186 23.0225 36.3595C23.0225 35.9642 23.2608 35.6077 23.6262 35.4565ZM20.0926 35.7681C20.2214 35.2445 20.7502 34.9244 21.2739 35.0529C21.5256 35.1147 21.7424 35.2739 21.8765 35.4956C22.0107 35.7173 22.0513 35.9832 21.9893 36.2347C21.8603 36.7582 21.3313 37.078 20.8076 36.9492C20.284 36.8204 19.9639 36.2916 20.0926 35.7681ZM26.7235 35.0531C27.2472 34.924 27.7763 35.2438 27.9055 35.7673C28.0346 36.2908 27.7148 36.8199 27.1912 36.949C26.9397 37.011 26.6738 36.9706 26.4521 36.8367C26.2304 36.7027 26.071 36.4862 26.009 36.2347C25.88 35.7112 26.1998 35.1822 26.7235 35.0531ZM12.7199 35.2733C13.0773 34.8695 13.6944 34.8317 14.0983 35.1889C14.5023 35.546 14.5403 36.1629 14.1831 36.5669C14.0115 36.761 13.7697 36.8789 13.5111 36.8948C13.2525 36.9106 12.9982 36.8231 12.8041 36.6514C12.4003 36.2941 12.3626 35.6771 12.7199 35.2733ZM33.9191 35.1713C34.3223 34.8133 34.9395 34.8498 35.2977 35.2529C35.6559 35.656 35.6195 36.2731 35.2163 36.6312C35.0226 36.8033 34.7685 36.8913 34.5099 36.876C34.2513 36.8607 34.0093 36.7433 33.8373 36.5496C33.4792 36.1464 33.5158 35.5294 33.9191 35.1713ZM7.10385 33.8078C7.54846 33.5015 8.14961 33.6023 8.32534 33.8558L9.23569 35.1739C9.41335 35.4273 9.29523 36.0254 8.85157 36.3327C8.40792 36.6389 7.80582 36.5381 7.63105 36.2846L6.71974 34.9665C6.54304 34.7131 6.65924 34.114 7.10385 33.8078ZM39.6884 33.8289C39.8631 33.5745 40.4643 33.4727 40.9089 33.778C41.3535 34.0842 41.4716 34.6823 41.293 34.9358L40.3846 36.2558C40.2098 36.5093 39.6048 36.6111 39.164 36.3058C38.7233 36.0005 38.6051 35.4014 38.7799 35.148L39.6884 33.8289ZM17.3894 34.4903C17.6401 34.013 18.2303 33.8292 18.7078 34.0797C19.1853 34.3302 19.3693 34.9201 19.119 35.3976C18.9986 35.6271 18.7919 35.7994 18.5445 35.8764C18.297 35.9535 18.029 35.9291 17.7995 35.8085C17.3223 35.5576 17.1387 34.9675 17.3894 34.4903ZM29.2903 34.0794C29.6401 33.8959 30.066 33.9411 30.3695 34.194C30.6729 34.4468 30.7941 34.8575 30.6765 35.2345C30.559 35.6116 30.2258 35.8807 29.8324 35.9163C29.439 35.952 29.0629 35.7473 28.8793 35.3976C28.7588 35.1683 28.7343 34.9006 28.8114 34.6533C28.8885 34.406 29.0608 34.1996 29.2903 34.0794ZM15.0704 32.6039C15.3326 32.3078 15.7475 32.199 16.1213 32.328C16.4952 32.4571 16.7544 32.7987 16.7781 33.1934C16.8017 33.5881 16.5851 33.9582 16.2293 34.1309C15.8735 34.3037 15.4487 34.2451 15.153 33.9825C14.9589 33.8108 14.8411 33.5689 14.8256 33.3103C14.8101 33.0517 14.8982 32.7975 15.0704 32.6039ZM31.5494 32.5206C31.9531 32.1631 32.5702 32.2004 32.9279 32.6039C33.2853 33.0078 33.2479 33.6247 32.8444 33.9825C32.4406 34.3399 31.8234 34.3024 31.4659 33.8987C31.1084 33.4951 31.1457 32.8781 31.5494 32.5206ZM1.732 30.221C2.23327 30.029 2.796 30.2719 2.90547 30.5599L3.86576 33.1002C3.97523 33.3882 3.71883 33.9402 3.21756 34.1322C2.71629 34.3243 2.15357 34.0823 2.04409 33.7943L1.079 31.2531C0.96953 30.9651 1.23073 30.4131 1.732 30.221ZM45.1092 30.5225C45.2177 30.2345 45.7775 29.9897 46.2817 30.1817C46.7868 30.3727 47.0451 30.9248 46.9366 31.2128L45.9763 33.755C45.8678 34.0439 45.307 34.2878 44.8028 34.0967C44.2987 33.9057 44.0404 33.3527 44.1489 33.0647L45.1092 30.5225ZM10.3487 32.2459C10.7923 31.9392 11.4006 32.0501 11.7074 32.4935C12.0142 32.937 11.9033 33.5452 11.4597 33.8519C11.2467 33.9992 10.9838 34.0559 10.729 34.0094C10.4742 33.963 10.2482 33.8172 10.1009 33.6042C9.79415 33.1607 9.90508 32.5526 10.3487 32.2459ZM36.3014 32.4723C36.6074 32.0284 37.2154 31.9165 37.6595 32.2223C38.1036 32.5281 38.2158 33.1359 37.91 33.58C37.6043 34.0241 36.9963 34.1363 36.552 33.8308C36.1079 33.5247 35.9957 32.9167 36.3014 32.4723ZM5.24953 29.4799C5.75081 29.2889 6.31353 29.5308 6.42301 29.8188L6.9915 31.3165C7.10097 31.6045 6.84073 32.1565 6.33946 32.3485C5.83819 32.5405 5.27546 32.2976 5.16599 32.0096L4.59654 30.5119C4.48707 30.2239 4.74826 29.6709 5.24953 29.4799ZM41.5849 29.7881C41.6944 29.5001 42.2542 29.2562 42.7584 29.4473C43.2625 29.6383 43.5218 30.1903 43.4123 30.4783L42.8467 31.977C42.7373 32.265 42.1774 32.5098 41.6733 32.3178C41.1682 32.1277 40.9098 31.5747 41.0193 31.2867L41.5849 29.7881ZM13.2702 30.2184C13.7139 29.912 14.3221 30.0232 14.6287 30.4668C14.7759 30.6799 14.8324 30.9428 14.7858 31.1976C14.7392 31.4523 14.5932 31.6781 14.38 31.8253C13.9361 32.1316 13.3279 32.0202 13.0215 31.5765C12.7151 31.1328 12.8264 30.5248 13.2702 30.2184ZM33.3687 30.4668C33.675 30.0231 34.2831 29.9115 34.727 30.2176C35.1709 30.5237 35.2827 31.1316 34.9766 31.5755C34.6705 32.0194 34.0624 32.1312 33.6184 31.8253C33.1745 31.5189 33.0628 30.911 33.3687 30.4668ZM8.77189 28.7392C9.27611 28.5479 9.84 28.8014 10.0314 29.3054C10.2229 29.8095 9.96937 30.3733 9.4652 30.5647C8.96085 30.7557 8.39709 30.5022 8.2053 29.9983C8.01401 29.4942 8.26767 28.9305 8.77189 28.7392ZM38.8594 28.6508C39.2542 28.6386 39.6175 28.8654 39.7799 29.2255C39.9422 29.5855 39.8716 30.0078 39.601 30.2955C39.3304 30.5832 38.9131 30.6797 38.5437 30.5398C38.0402 30.348 37.7865 29.7854 37.9762 29.2812C38.116 28.9118 38.4646 28.663 38.8594 28.6508ZM34.6434 28.042C34.8345 27.5388 35.3968 27.285 35.9007 27.4747C36.4045 27.6644 36.6598 28.2259 36.4714 28.7301C36.3803 28.9739 36.1956 29.1713 35.9583 29.2783C35.721 29.3854 35.4508 29.3933 35.2076 29.3004C34.7048 29.1081 34.4524 28.5452 34.6434 28.042ZM11.7704 27.6765C12.058 27.4058 12.4805 27.3349 12.8407 27.497C13.201 27.6591 13.4281 28.0222 13.4161 28.417C13.4041 28.8118 13.1553 29.1605 12.7859 29.3004C12.2818 29.4913 11.7183 29.2377 11.5269 28.7339C11.3867 28.3647 11.4828 27.9473 11.7704 27.6765ZM0.886945 24.7095C1.42087 24.648 1.90581 25.0138 1.94326 25.3201L2.27264 28.0178C2.31009 28.3231 1.92694 28.7983 1.3911 28.8636C0.856216 28.9288 0.37031 28.5592 0.332858 28.2539L0.00444047 25.5562C-0.0349314 25.25 0.353025 24.7709 0.886945 24.7095ZM46.0589 25.2807C46.0944 24.9754 46.5794 24.6048 47.1152 24.6691C47.6491 24.7335 48.0333 25.2087 47.9977 25.514L47.6731 28.2127C47.6376 28.5179 47.1527 28.8885 46.6168 28.8242C46.081 28.7599 45.6978 28.2856 45.7343 27.9794L46.0589 25.2807ZM4.48611 24.8333C5.02003 24.7709 5.50497 25.1376 5.54242 25.4429L5.73448 27.0337C5.77193 27.339 5.38974 27.8142 4.8539 27.8795C4.31805 27.9448 3.83311 27.5723 3.79758 27.2699L3.60552 25.6801C3.56807 25.3738 3.95219 24.8957 4.48611 24.8333ZM42.4617 25.4113C42.4972 25.105 42.9821 24.7354 43.518 24.7997C44.0538 24.864 44.437 25.3383 44.4005 25.6436L44.2084 27.2344C44.171 27.5406 43.688 27.9102 43.1521 27.8459C42.6163 27.7816 42.2331 27.3073 42.2696 27.002L42.4617 25.4113ZM8.08237 24.962C8.61774 24.8965 9.10484 25.2773 9.17034 25.8126C9.23584 26.3478 8.85495 26.8348 8.31958 26.9003C8.06247 26.9317 7.8034 26.8598 7.59936 26.7003C7.39531 26.5407 7.26302 26.3067 7.23157 26.0497C7.16609 25.5144 7.547 25.0275 8.08237 24.962ZM38.8379 25.783C38.9021 25.2476 39.3882 24.8657 39.9237 24.9298C40.4592 24.9939 40.8414 25.4798 40.7773 26.0151C40.7466 26.2723 40.6148 26.5067 40.4111 26.6668C40.2074 26.8269 39.9485 26.8995 39.6912 26.8686C39.1558 26.8043 38.7738 26.3183 38.8379 25.783ZM11.6095 24.5213C12.1449 24.4564 12.6316 24.8376 12.6966 25.3729C12.7442 25.7649 12.5509 26.147 12.2068 26.341C11.8627 26.535 11.4357 26.5027 11.1247 26.2591C10.8138 26.0155 10.6802 25.6087 10.7864 25.2283C10.8925 24.8479 11.2174 24.5688 11.6095 24.5213ZM35.4204 25.0109C35.6144 24.6669 35.9967 24.4737 36.3888 24.5213C36.646 24.5523 36.8803 24.6842 37.0401 24.8881C37.1999 25.092 37.272 25.351 37.2406 25.6081C37.193 26.0001 36.9139 26.3249 36.5334 26.431C36.1529 26.5371 35.746 26.4036 35.5023 26.0927C35.2587 25.7819 35.2264 25.3549 35.4204 25.0109ZM36.153 21.5422C36.6883 21.4769 37.1751 21.8578 37.2406 22.3929C37.3055 22.9283 36.9243 23.4151 36.3888 23.4806C35.8535 23.5455 35.3668 23.1644 35.3017 22.6293C35.2366 22.0941 35.6177 21.6074 36.153 21.5422ZM10.7577 22.3927C10.8228 21.8575 11.3095 21.4764 11.8448 21.5413C12.38 21.6073 12.761 22.0938 12.6966 22.6291C12.6311 23.1642 12.1443 23.545 11.609 23.4798C11.0737 23.4145 10.6926 22.9279 10.7577 22.3927ZM0.329018 19.7682C0.364548 19.4629 0.849494 19.0923 1.38533 19.1576C1.92118 19.2228 2.30433 19.6971 2.26688 20.0034L1.94038 22.7011C1.90485 23.0073 1.41991 23.3769 0.884065 23.3117C0.349184 23.2521 -0.0349316 22.7721 0.00251958 22.4668L0.329018 19.7682ZM46.6024 19.1182C47.1373 19.0529 47.6232 19.4216 47.6578 19.7269L47.9891 22.4246C48.0265 22.7299 47.6424 23.208 47.1095 23.2713C46.5765 23.3347 46.0906 22.968 46.0531 22.6627L45.7218 19.965C45.6844 19.6597 46.0666 19.1844 46.6024 19.1182ZM3.79278 20.7493C3.82927 20.444 4.31325 20.0744 4.84909 20.1387C5.38493 20.203 5.76809 20.6783 5.73064 20.9845L5.53858 22.5743C5.50305 22.8806 5.01714 23.2492 4.48226 23.1849C3.94738 23.1206 3.56423 22.6454 3.60072 22.3401L3.79278 20.7493ZM43.1406 20.1013C43.6735 20.0379 44.1595 20.4047 44.1969 20.7099L44.389 22.2998C44.4264 22.606 44.0423 23.0851 43.5093 23.1475C42.9764 23.2099 42.4905 22.8441 42.453 22.5379L42.261 20.948C42.2235 20.6466 42.6076 20.1646 43.1406 20.1013ZM7.59366 21.3203C7.79758 21.1606 8.05667 21.0885 8.31382 21.1199C8.70596 21.1674 9.03085 21.4464 9.13697 21.8268C9.24309 22.2072 9.10954 22.6141 8.79861 22.8577C8.48767 23.1012 8.06059 23.1336 7.71652 22.9396C7.37244 22.7456 7.17915 22.3635 7.22677 21.9714C7.25775 21.7143 7.38974 21.48 7.59366 21.3203ZM39.6797 21.092C40.215 21.0267 40.7019 21.4073 40.7675 21.9424C40.8331 22.4775 40.4525 22.9645 39.9174 23.0303C39.3822 23.096 38.8949 22.7158 38.8289 22.1807C38.7972 21.9235 38.869 21.6643 39.0286 21.4601C39.1882 21.2559 39.4224 21.1235 39.6797 21.092ZM11.5269 19.2718C11.7187 18.7684 12.2818 18.5151 12.7859 18.7054C13.1553 18.8453 13.4041 19.194 13.4161 19.5888C13.4281 19.9836 13.201 20.3467 12.8407 20.5088C12.4805 20.6709 12.058 20.6 11.7704 20.3292C11.4828 20.0584 11.3867 19.6411 11.5269 19.2718ZM35.2076 18.7054C35.4498 18.6131 35.7188 18.621 35.9551 18.7273C36.1915 18.8336 36.3759 19.0295 36.4675 19.2718C36.6588 19.7759 36.4052 20.3396 35.901 20.531C35.3967 20.7223 34.8328 20.4688 34.6414 19.9647C34.45 19.4606 34.7035 18.8968 35.2076 18.7054ZM8.40208 17.6939C8.67269 17.4062 9.09001 17.3098 9.45944 17.4497C9.96375 17.6406 10.2178 18.204 10.027 18.7083C9.88717 19.0776 9.53856 19.3264 9.14372 19.3386C8.74888 19.3508 8.38558 19.124 8.22323 18.764C8.06089 18.404 8.13148 17.9816 8.40208 17.6939ZM38.5274 17.4237C39.0314 17.2327 39.5951 17.4857 39.7873 17.9892C39.9277 18.3583 39.8319 18.7757 39.5446 19.0466C39.2572 19.3176 38.8349 19.3888 38.4745 19.2271C38.1141 19.0653 37.8867 18.7025 37.8983 18.3077C37.9098 17.913 38.1581 17.5641 38.5274 17.4237ZM5.16023 16.0086C5.2697 15.7197 5.82955 15.4768 6.3337 15.6678C6.83785 15.8589 7.09617 16.4119 6.98766 16.6999L6.41917 18.1985C6.31065 18.4865 5.7508 18.7303 5.24665 18.5383C4.73962 18.3473 4.47842 17.7943 4.5927 17.5063L5.16023 16.0086ZM41.6512 15.6371C42.1534 15.4451 42.7161 15.687 42.8256 15.975L43.396 17.4727C43.5055 17.7597 43.2462 18.3147 42.744 18.5057C42.2418 18.6967 41.68 18.4558 41.5696 18.1678L41.0001 16.6701C40.8897 16.3821 41.1489 15.8291 41.6512 15.6371ZM33.6184 16.1766C33.9438 15.952 34.3726 15.9455 34.7047 16.1602C35.0369 16.3749 35.2068 16.7686 35.1353 17.1575C35.0639 17.5464 34.765 17.8539 34.3783 17.9366C33.9915 18.0192 33.593 17.8608 33.3687 17.5351C33.0628 17.091 33.1745 16.4831 33.6184 16.1766ZM13.0215 16.4254C13.3279 15.9817 13.9361 15.8703 14.38 16.1766C14.8235 16.4834 14.9348 17.0912 14.6287 17.5351C14.3221 17.9787 13.7139 18.0899 13.2702 17.7835C12.8264 17.4771 12.7151 16.8691 13.0215 16.4254ZM2.03065 14.2278C2.14012 13.9398 2.69613 13.6959 3.20124 13.887C3.70635 14.078 3.96467 14.631 3.8552 14.919L2.89491 17.4602C2.78543 17.7482 2.22559 17.9921 1.72144 17.8001C1.21344 17.609 0.958967 17.057 1.07036 16.769L2.03065 14.2278ZM44.776 13.8505C45.2772 13.6585 45.84 13.9004 45.9494 14.1884L46.9174 16.7287C47.0269 17.0157 46.7666 17.5697 46.2654 17.7617C45.7641 17.9537 45.2014 17.7117 45.0919 17.4237L44.1239 14.8835C44.0145 14.5955 44.2747 14.0425 44.776 13.8505ZM10.0926 14.4093C10.3991 13.9656 11.0072 13.8543 11.4511 14.1606C11.6643 14.3077 11.8103 14.5335 11.8569 14.7883C11.9036 15.0431 11.847 15.3059 11.6998 15.519C11.3932 15.9626 10.785 16.0739 10.3413 15.7675C9.8975 15.461 9.78618 14.853 10.0926 14.4093ZM36.53 14.1385C36.7428 13.9908 37.0056 13.9339 37.2605 13.9801C37.5154 14.0264 37.7415 14.1722 37.8888 14.3852C38.1137 14.7099 38.1209 15.138 37.9069 15.47C37.693 15.8019 37.3001 15.9724 36.9114 15.9018C36.5228 15.8312 36.2149 15.5336 36.1314 15.1476C36.0479 14.7616 36.2052 14.3633 36.53 14.1385ZM31.4659 14.1022C31.8234 13.6986 32.4406 13.6611 32.8444 14.0185C33.2479 14.3763 33.2853 14.9932 32.9279 15.3971C32.5702 15.8006 31.9531 15.8379 31.5494 15.4803C31.1457 15.1228 31.1084 14.5058 31.4659 14.1022ZM15.153 14.0185C15.5565 13.6608 16.1737 13.6978 16.5315 14.1012C16.8894 14.5046 16.8524 15.1216 16.449 15.4794C16.0455 15.8372 15.4284 15.8004 15.0704 15.3971C14.8982 15.2035 14.8101 14.9493 14.8256 14.6907C14.8411 14.432 14.9589 14.1902 15.153 14.0185ZM7.62337 11.7317C7.79814 11.4782 8.40312 11.3765 8.84389 11.6827C9.28467 11.989 9.40278 12.5871 9.22801 12.8405L8.31862 14.1596C8.14288 14.4131 7.54174 14.5148 7.09713 14.2086C6.65348 13.9023 6.53536 13.3042 6.71301 13.0508L7.62337 11.7317ZM39.1352 11.6558C39.5789 11.3477 40.181 11.4494 40.3558 11.7029L41.268 13.02C41.4447 13.2735 41.3276 13.8716 40.8839 14.1788C40.4403 14.486 39.8391 14.3852 39.6634 14.1318L38.7511 12.8146C38.5744 12.5611 38.6925 11.963 39.1352 11.6558ZM18.1649 12.084C18.5587 12.0483 18.9353 12.2533 19.119 12.6034C19.3696 13.0811 19.1856 13.6715 18.708 13.9225C18.3579 14.1064 17.9315 14.0613 17.6276 13.8083C17.3238 13.5553 17.2023 13.1441 17.3199 12.7667C17.4375 12.3892 17.771 12.1198 18.1649 12.084ZM28.8793 12.6034C29.1303 12.1264 29.7202 11.9426 30.1978 12.1925C30.5476 12.376 30.7524 12.752 30.7167 13.1453C30.681 13.5386 30.4119 13.8717 30.0348 13.9892C29.6576 14.1067 29.2468 13.9856 28.9939 13.6822C28.741 13.3789 28.6958 12.9531 28.8793 12.6034ZM12.5623 11.6626C12.7353 11.307 13.1057 11.0908 13.5005 11.1147C13.8952 11.1386 14.2367 11.398 14.3656 11.7718C14.4944 12.1457 14.3853 12.5603 14.089 12.8223C13.8951 12.9941 13.6408 13.0818 13.3822 13.0661C13.1236 13.0505 12.8818 12.9327 12.71 12.7387C12.4476 12.4429 12.3892 12.0182 12.5623 11.6626ZM34.4755 11.098C34.7341 11.082 34.9885 11.1694 35.1827 11.3409C35.5867 11.698 35.6248 12.3149 35.2678 12.7189C34.9107 13.123 34.2937 13.1612 33.8895 12.8043C33.4852 12.4475 33.4468 11.8306 33.8037 11.4264C33.9752 11.2322 34.2168 11.114 34.4755 11.098ZM26.009 11.7672C26.1382 11.2437 26.6674 10.9239 27.1911 11.0531C27.7147 11.1822 28.0346 11.7112 27.9055 12.2347C27.7763 12.7583 27.2472 13.0781 26.7235 12.949C26.472 12.887 26.2554 12.7277 26.1214 12.506C25.9874 12.2844 25.947 12.0186 26.009 11.7672ZM20.8033 11.0529C21.0548 10.9909 21.3207 11.0313 21.5424 11.1653C21.7641 11.2992 21.9234 11.5157 21.9854 11.7672C22.1145 12.2907 21.7947 12.8198 21.271 12.9488C20.7473 13.0779 20.2181 12.7582 20.089 12.2346C19.9599 11.7111 20.2797 11.1821 20.8033 11.0529ZM5.01234 9.25381C5.18808 9.00036 5.79306 8.8986 6.23383 9.20485C6.6746 9.5111 6.79272 10.1092 6.61795 10.3627L5.07476 12.5995C4.89903 12.854 4.29789 12.9557 3.85424 12.6495C3.40962 12.3432 3.29151 11.7441 3.46916 11.4907L5.01234 9.25381ZM41.7395 9.17413C42.1832 8.86692 42.7843 8.96772 42.9601 9.22021L44.508 11.4552C44.6847 11.7086 44.5676 12.3067 44.1239 12.6139C43.6803 12.9212 43.0791 12.8204 42.9034 12.5669L41.3554 10.3329C41.1787 10.0794 41.2959 9.48134 41.7395 9.17413ZM23.6262 10.7384C23.9917 10.5872 24.4122 10.671 24.6917 10.9507C24.9712 11.2304 25.0546 11.6509 24.903 12.0161C24.7514 12.3813 24.3946 12.6191 23.9992 12.6187C23.74 12.6187 23.4914 12.5157 23.3083 12.3324C23.1251 12.1491 23.0223 11.9005 23.0225 11.6414C23.0225 11.2461 23.2608 10.8896 23.6262 10.7384ZM15.8543 9.2819C16.1072 8.97855 16.518 8.85738 16.8951 8.97491C17.2722 9.09244 17.5414 9.42551 17.5771 9.8188C17.6128 10.2121 17.408 10.5882 17.0582 10.7716C16.5806 11.0221 15.9903 10.8382 15.7397 10.3607C15.5562 10.0111 15.6014 9.58525 15.8543 9.2819ZM30.508 9.44486C30.7581 8.9672 31.3481 8.78262 31.826 9.03254C32.3038 9.28246 32.4886 9.87229 32.2387 10.3501C31.9888 10.8278 31.3989 11.0127 30.9209 10.763C30.6913 10.643 30.5187 10.4367 30.4413 10.1895C30.3638 9.94224 30.3878 9.67438 30.508 9.44486ZM11.0372 8.16897C11.2677 7.96448 11.8784 8.00864 12.2337 8.41282C12.589 8.81699 12.5602 9.42566 12.3297 9.63015L11.1303 10.6929C10.8999 10.8974 10.292 10.8523 9.93382 10.4481C9.57563 10.0449 9.60444 9.43526 9.83491 9.23557L11.0372 8.16897ZM35.7396 8.39265C36.0969 7.98752 36.7047 7.9424 36.9362 8.14593L38.1375 9.20293C38.3689 9.40646 38.3987 10.0161 38.0415 10.4203C37.6842 10.8244 37.0754 10.8705 36.8449 10.666L35.6436 9.60998C35.4122 9.4055 35.3824 8.79683 35.7396 8.39265ZM19.9544 7.6035C20.2059 7.54148 20.4718 7.5819 20.6935 7.71585C20.9152 7.84981 21.0745 8.06633 21.1365 8.31777C21.2656 8.84131 20.9458 9.37034 20.4221 9.49942C19.8984 9.6285 19.3692 9.30875 19.2401 8.78523C19.111 8.2617 19.4308 7.73264 19.9544 7.6035ZM27.6338 7.57767C28.0243 7.51746 28.4125 7.69836 28.6175 8.036C28.8225 8.37364 28.8039 8.80149 28.5702 9.12C28.3366 9.43851 27.934 9.58492 27.5503 9.49094C27.0267 9.36271 26.7061 8.83461 26.8339 8.31105C26.9276 7.92735 27.2433 7.63789 27.6338 7.57767ZM24.0024 7.10908C24.542 7.11032 24.9786 7.54849 24.9777 8.088C24.9768 8.62751 24.5388 9.06425 23.9992 9.06372C23.7395 9.06372 23.4905 8.96033 23.3072 8.7764C23.124 8.59246 23.0215 8.34313 23.0225 8.08352C23.0241 7.54402 23.4627 7.10785 24.0024 7.10908ZM9.09549 5.13813C9.32692 4.93364 9.93766 4.97972 10.293 5.38294C10.6483 5.78615 10.6195 6.39578 10.389 6.60026L8.35415 8.40226C8.12752 8.60674 7.51005 8.56258 7.15475 8.15841C6.79944 7.75423 6.82825 7.14557 7.05872 6.94108L9.09549 5.13813ZM37.6756 5.35509C38.0328 4.95092 38.6407 4.90388 38.8711 5.10836L40.9089 6.90748C41.1403 7.111 41.1701 7.72063 40.8129 8.12481C40.4556 8.52898 39.8468 8.57506 39.6163 8.37154L37.5796 6.57242C37.3472 6.36793 37.3184 5.75927 37.6756 5.35509ZM15.202 5.52598C15.4747 5.37814 16.0518 5.57302 16.3053 6.05016C16.5588 6.5273 16.386 7.11196 16.1133 7.25501L14.694 8C14.4212 8.14305 13.8441 7.95488 13.5906 7.47678C13.3371 6.99868 13.5099 6.41402 13.7827 6.27097L15.202 5.52598ZM31.6613 6.04056C31.911 5.56246 32.49 5.37237 32.7637 5.51446L34.184 6.25657C34.4567 6.39962 34.6305 6.98428 34.3808 7.46238C34.1312 7.94048 33.5521 8.13057 33.2784 7.98752L31.8582 7.24157C31.5854 7.09852 31.4116 6.51866 31.6613 6.04056ZM19.8814 3.95536C20.1801 3.88432 20.7006 4.20113 20.8283 4.72435C20.956 5.24757 20.6468 5.77367 20.3481 5.84759L18.7925 6.23161C18.4929 6.30937 17.9734 5.98776 17.8456 5.46358C17.7179 4.9394 18.0262 4.4133 18.3258 4.33937L19.8814 3.95536ZM27.1403 4.72531C27.2689 4.20113 27.7856 3.87759 28.0852 3.95056L29.6418 4.33457C29.9414 4.40754 30.2497 4.9346 30.122 5.45782C29.9942 5.98104 29.4766 6.30457 29.177 6.23161L27.6214 5.84759C27.3179 5.77943 27.0116 5.24949 27.1403 4.72531ZM24.8 3.55502C25.1083 3.55502 25.5337 3.9928 25.5337 4.53138C25.5337 5.07092 25.1083 5.5087 24.8 5.5087H23.1973C22.8891 5.5087 22.4637 5.06996 22.4637 4.53138C22.4637 3.9928 22.8891 3.55502 23.1973 3.55502H24.8ZM14.041 2.11976C14.3137 1.97096 14.8899 2.16585 15.1443 2.64299C15.3988 3.12012 15.225 3.70575 14.9523 3.84879L12.5448 5.1122C12.2712 5.25525 11.6988 5.06228 11.4444 4.58514C11.1899 4.108 11.3637 3.52334 11.6364 3.37934L14.041 2.11976ZM32.8136 2.62763C33.0643 2.14953 33.6433 1.95944 33.9161 2.10152L36.3254 3.36109C36.5991 3.50414 36.7729 4.08784 36.5232 4.56594C36.2736 5.04404 35.6936 5.23509 35.4208 5.09204L33.0115 3.83247C32.7387 3.69039 32.563 3.10572 32.8136 2.62763ZM19.5742 0.372495C19.8728 0.299532 20.3933 0.621145 20.52 1.14533C20.6468 1.66951 20.3385 2.19561 20.0399 2.26953L17.4001 2.91948C17.1014 2.99532 16.5819 2.67179 16.4542 2.14761C16.3265 1.62342 16.6347 1.09732 16.9343 1.0234L19.5742 0.372495ZM27.4447 1.13957C27.5734 0.615385 28.09 0.291852 28.3896 0.364814L31.0256 1.01092C31.3242 1.08484 31.6344 1.60998 31.5057 2.13417C31.3771 2.65835 30.8604 2.98188 30.5608 2.90796L27.92 2.26185C27.6214 2.18889 27.316 1.66375 27.4447 1.13957ZM25.358 0C25.6662 0 26.0916 0.438738 26.0916 0.977319C26.0916 1.5159 25.6662 1.95368 25.358 1.95368H22.6394C22.3311 1.95368 21.9057 1.51686 21.9057 0.977319C21.9057 0.437778 22.3311 0 22.6394 0H25.358Z" fill="white"></path></svg> 